<svg xmlns="http://www.w3.org/2000/svg" viewBox="0 0 1280 640">
  <defs>
    <linearGradient id="bgGrad" x1="0%" y1="0%" x2="100%" y2="100%">
      <stop offset="0%" style="stop-color:#1a1a2e"/>
      <stop offset="50%" style="stop-color:#16213e"/>
      <stop offset="100%" style="stop-color:#0f3460"/>
    </linearGradient>
    <linearGradient id="accentGrad" x1="0%" y1="0%" x2="100%" y2="0%">
      <stop offset="0%" style="stop-color:#e94560"/>
      <stop offset="100%" style="stop-color:#ff6b6b"/>
    </linearGradient>
    <linearGradient id="greenGrad" x1="0%" y1="0%" x2="100%" y2="0%">
      <stop offset="0%" style="stop-color:#00d9a5"/>
      <stop offset="100%" style="stop-color:#00f5c4"/>
    </linearGradient>
  </defs>

  <!-- Background -->
  <rect width="1280" height="640" fill="url(#bgGrad)"/>

  <!-- Decorative grid pattern -->
  <g opacity="0.03" stroke="#ffffff" stroke-width="1">
    <line x1="0" y1="80" x2="1280" y2="80"/>
    <line x1="0" y1="160" x2="1280" y2="160"/>
    <line x1="0" y1="240" x2="1280" y2="240"/>
    <line x1="0" y1="320" x2="1280" y2="320"/>
    <line x1="0" y1="400" x2="1280" y2="400"/>
    <line x1="0" y1="480" x2="1280" y2="480"/>
    <line x1="0" y1="560" x2="1280" y2="560"/>
    <line x1="160" y1="0" x2="160" y2="640"/>
    <line x1="320" y1="0" x2="320" y2="640"/>
    <line x1="480" y1="0" x2="480" y2="640"/>
    <line x1="640" y1="0" x2="640" y2="640"/>
    <line x1="800" y1="0" x2="800" y2="640"/>
    <line x1="960" y1="0" x2="960" y2="640"/>
    <line x1="1120" y1="0" x2="1120" y2="640"/>
  </g>

  <!-- Decorative circles -->
  <circle cx="100" cy="100" r="200" fill="#e94560" opacity="0.05"/>
  <circle cx="1180" cy="540" r="250" fill="#00d9a5" opacity="0.05"/>

  <!-- Logo icon - stylized ledger/spreadsheet -->
  <g transform="translate(180, 220)">
    <!-- Outer frame -->
    <rect x="0" y="0" width="200" height="200" rx="20" fill="none" stroke="url(#accentGrad)" stroke-width="4"/>

    <!-- Inner grid lines -->
    <line x1="70" y1="20" x2="70" y2="180" stroke="#ffffff" stroke-width="2" opacity="0.3"/>
    <line x1="20" y1="60" x2="180" y2="60" stroke="#ffffff" stroke-width="2" opacity="0.3"/>
    <line x1="20" y1="100" x2="180" y2="100" stroke="#ffffff" stroke-width="2" opacity="0.3"/>
    <line x1="20" y1="140" x2="180" y2="140" stroke="#ffffff" stroke-width="2" opacity="0.3"/>

    <!-- Checkmarks representing allocated items -->
    <path d="M30 75 L40 85 L55 65" stroke="url(#greenGrad)" stroke-width="4" fill="none" stroke-linecap="round" stroke-linejoin="round"/>
    <path d="M30 115 L40 125 L55 105" stroke="url(#greenGrad)" stroke-width="4" fill="none" stroke-linecap="round" stroke-linejoin="round"/>
    <path d="M30 155 L40 165 L55 145" stroke="url(#greenGrad)" stroke-width="4" fill="none" stroke-linecap="round" stroke-linejoin="round"/>

    <!-- Dollar signs -->
    <text x="120" y="85" font-family="system-ui, -apple-system, sans-serif" font-size="24" font-weight="bold" fill="#ffffff" opacity="0.8" text-anchor="middle">$</text>
    <text x="120" y="125" font-family="system-ui, -apple-system, sans-serif" font-size="24" font-weight="bold" fill="#ffffff" opacity="0.8" text-anchor="middle">$</text>
    <text x="120" y="165" font-family="system-ui, -apple-system, sans-serif" font-size="24" font-weight="bold" fill="#ffffff" opacity="0.8" text-anchor="middle">$</text>

    <!-- Header area -->
    <rect x="20" y="20" width="160" height="30" rx="5" fill="url(#accentGrad)" opacity="0.3"/>
  </g>

  <!-- Main title -->
  <text x="440" y="280" font-family="system-ui, -apple-system, BlinkMacSystemFont, 'Segoe UI', sans-serif" font-size="80" font-weight="700" fill="#ffffff">
    TSV Ledger
  </text>

  <!-- Tagline -->
  <text x="440" y="350" font-family="system-ui, -apple-system, BlinkMacSystemFont, 'Segoe UI', sans-serif" font-size="28" fill="#ffffff" opacity="0.8">
    Personal Finance • Bank Import • Smart Allocation
  </text>

  <!-- Feature pills -->
  <g transform="translate(440, 400)">
    <!-- Local-first pill -->
    <rect x="0" y="0" width="140" height="40" rx="20" fill="#e94560" opacity="0.2"/>
    <rect x="0" y="0" width="140" height="40" rx="20" fill="none" stroke="#e94560" stroke-width="2"/>
    <text x="70" y="27" font-family="system-ui, sans-serif" font-size="16" fill="#ffffff" text-anchor="middle">Local-First</text>

    <!-- OAuth pill -->
    <rect x="160" y="0" width="100" height="40" rx="20" fill="#00d9a5" opacity="0.2"/>
    <rect x="160" y="0" width="100" height="40" rx="20" fill="none" stroke="#00d9a5" stroke-width="2"/>
    <text x="210" y="27" font-family="system-ui, sans-serif" font-size="16" fill="#ffffff" text-anchor="middle">OAuth</text>

    <!-- Cloud Sync pill -->
    <rect x="280" y="0" width="130" height="40" rx="20" fill="#4ecdc4" opacity="0.2"/>
    <rect x="280" y="0" width="130" height="40" rx="20" fill="none" stroke="#4ecdc4" stroke-width="2"/>
    <text x="345" y="27" font-family="system-ui, sans-serif" font-size="16" fill="#ffffff" text-anchor="middle">Cloud Sync</text>

    <!-- No Dependencies pill -->
    <rect x="430" y="0" width="170" height="40" rx="20" fill="#a855f7" opacity="0.2"/>
    <rect x="430" y="0" width="170" height="40" rx="20" fill="none" stroke="#a855f7" stroke-width="2"/>
    <text x="515" y="27" font-family="system-ui, sans-serif" font-size="16" fill="#ffffff" text-anchor="middle">Zero Dependencies</text>
  </g>

  <!-- Bottom URL -->
  <text x="640" y="580" font-family="system-ui, sans-serif" font-size="20" fill="#ffffff" opacity="0.5" text-anchor="middle">
    tsv-ledger.pages.dev
  </text>

  <!-- Version badge -->
  <g transform="translate(1080, 50)">
    <rect x="0" y="0" width="120" height="36" rx="18" fill="#00d9a5"/>
    <text x="60" y="24" font-family="system-ui, sans-serif" font-size="16" font-weight="600" fill="#1a1a2e" text-anchor="middle">v3.2.0</text>
  </g>
</svg>
